# AST/ASF file generated using VICON BodyLanguage
# -----------------------------------------------
:version 1.10
:name VICON
:units
  mass 1.0
  length 0.45
  angle deg
:documentation
   .ast/.asf automatically generated from VICON data using
   VICON BodyBuilder and BodyLanguage model FoxedUp or BRILLIANT.MOD
:root
   order TX TY TZ RX RY RZ
   axis XYZ
   position 0 0 0  
   orientation 0 0 0 
:bonedata
  begin
     id 1 
     name lhipjoint
     direction 0.573633 -0.743009 0.344793 
     length 2.46257 
     axis 0 0 0  XYZ
  end
  begin
     id 2 
     name lfemur
     direction 0.34202 -0.939693 0  
     length 7.3842  
     axis 0 0 20  XYZ
    dof rx ry rz
    limits (-160.0 20.0)
           (-70.0 70.0)
           (-60.0 70.0)
  end
  begin
     id 3 
     name ltibia
     direction 0.34202 -0.939693 0   
     length 7.50407   
     axis 0 0 20   XYZ
    dof rx
    limits (-10.0 170.0)
  end
  begin
     id 4 
     name lfoot
     direction 0.110749 -0.304281 0.946123   
     length 1.95925   
     axis -90 7.62852e-016 20   XYZ
    dof rx rz
    limits (-45.0 90.0)
           (-70.0 20.0)
  end
  begin
     id 5 
     name ltoes
     direction 1.53554e-011 -4.21843e-011 1   
     length 0.978318   
     axis -90 7.62852e-016 20   XYZ
    dof rx
    limits (-90.0 20.0)
  end
  begin
     id 6 
     name rhipjoint
     direction -0.488109 -0.791693 0.367385   
     length 2.31113  
     axis 0 0 0  XYZ 
  end
  begin
     id 7 
     name rfemur
     direction -0.34202 -0.939693 0   
     length 7.40965   
     axis 0 0 -20   XYZ
    dof rx ry rz
    limits (-160.0 20.0)
           (-70.0 70.0)
           (-70.0 60.0)
  end
  begin
     id 8 
     name rtibia
     direction -0.34202 -0.939693 0   
     length 7.55548   
     axis 0 0 -20   XYZ
    dof rx
    limits (-10.0 170.0)
 end
 begin
     id 9 
     name rfoot
     direction -0.127594 -0.350561 0.927808   
     length 2.07199  
     axis -90 -7.62852e-016 -20   XYZ
    dof rx rz
    limits (-45.0 90.0)
           (-20.0 70.0)
  end
  begin
     id 10 
     name rtoes
     direction -1.53542e-011 -4.21909e-011 1   
     length 1.02667   
     axis -90 -7.62852e-016 -20   XYZ
    dof rx
    limits (-90.0 20.0)
  end
  begin
     id 11 
     name lowerback
     direction -0.0103342 0.997298 -0.0727278   
     length 2.02836   
     axis 0 0 0   XYZ
    dof rx ry rz
    limits (-20.0 45.0)
           (-30.0 30.0)
           (-30.0 30.0)
  end
  begin
     id 12 
     name upperback
     direction 0.0171146 0.999786 -0.011606   
     length 2.03179   
     axis 0 0 0   XYZ
    dof rx ry rz
    limits (-20.0 45.0)
           (-30.0 30.0)
           (-30.0 30.0)
  end
  begin
     id 13 
     name thorax
     direction 0.0216927 0.999513 0.0224343   
     length 2.03882   
     axis 0 0 0   XYZ
    dof rx ry rz
    limits (-20.0 45.0)
           (-30.0 30.0)
           (-30.0 30.0)
  end
  begin
     id 14 
     name lowerneck
     direction 0.000989287 0.993907 0.110221   
     length 1.75428   
     axis 0 0 0   XYZ
    dof rx ry rz
    limits (-20.0 45.0)
           (-30.0 30.0)
           (-30.0 30.0)
  end
  begin
     id 15 
     name upperneck
     direction -0.0172474 0.994813 -0.100253   
     length 1.77058   
     axis 0 0 0   XYZ
    dof rx ry rz
    limits (-20.0 45.0)
           (-30.0 30.0)
           (-30.0 30.0)
  end
  begin
     id 16
     name head
     direction -0.00486455 0.99894 -0.0457663  
     length 1.77427  
     axis 0 0 0   XYZ
    dof rx ry rz
    limits (-20.0 45.0)
           (-30.0 30.0)
           (-30.0 30.0)
  end
  begin
     id 17 
     name lclavicle
     direction 0.927314 0.333734 -0.169441  
     length 3.97584  
     axis 0 0 0   XYZ
    dof ry rz
    limits (-20.0 10.0)
           (0.0 20.0)
  end
  begin
     id 18 
     name lhumerus
     direction 1 -4.48965e-011 -3.25313e-028   
     length 4.76468   
     axis 180 -30 -90   XYZ
    dof rx ry rz
    limits (-60.0 90.0)
           (-90.0 90.0)
           (-90.0 90.0)
  end
  begin
     id 19
     name lradius
     direction 1 -4.48969e-011 -2.8465e-028   
     length 3.52712   
     axis -180 -30 -90   XYZ
    dof rx
    limits (-10.0 170.0)
  end
  begin
     id 20
     name lwrist
     direction 1 -4.4896e-011 -7.78665e-028   
     length 1.76356   
     axis 1.91374e-015 90 90   XYZ
    dof ry
    limits (-180.0 0.0)
 end
  begin
     id 21 
     name lhand
     direction 1 -4.48959e-011 -1.55733e-027   
     length 0.859564   
     axis 9.9371e-016 90 90   XYZ
    dof rx rz
    limits (-90.0 90.0)
           (-45.0 45.0)
  end
  begin
     id 22 
     name lfingers
     direction 1 -4.48965e-011 -3.11466e-027   
     length 0.693002   
     axis 1.98742e-015 90 90   XYZ
    dof rx
    limits (0.0 90.0)
  end
  begin
     id 23
     name lthumb
     direction 0.707107 -6.34948e-011 0.707107   
     length 0.995017   
     axis -90 45 2.85299e-015   XYZ
    dof rx rz
    limits (-45.0 45.0)
           (-45.0 45.0)
  end
  begin
     id 24 
     name rclavicle
     direction -0.899388 0.348209 -0.264294   
     length 3.68366  
     axis 0 0 0   XYZ 
    dof ry rz
    limits (-10.0 20.0)
           (-20.0 0.0)
  end
  begin
     id 25 
     name rhumerus
     direction -1 -4.48965e-011 -3.01536e-027  
     length 4.90577   
     axis 180 30 90   XYZ
    dof rx ry rz
    limits (-90.0 60.0)
           (-90.0 90.0)
           (-90.0 90.0)
  end
  begin
     id 26 
     name rradius
     direction -1 -4.48966e-011 3.93291e-027   
     length 3.42692   
     axis -180 30 90   XYZ
    dof rx
    limits (-10.0 170.0)
  end
  begin
     id 27 
     name rwrist
     direction -1 -4.48969e-011 -7.78665e-028   
     length 1.71346   
     axis 1.91374e-015 -90 -90   XYZ
    dof ry
    limits (-180.0 0.0)
  end
  begin
     id 28
     name rhand
     direction -1 -4.48967e-011 -1.55733e-027   
     length 0.740957   
     axis 9.9371e-016 -90 -90   XYZ
    dof rx rz
    limits (-90.0 90.0)
           (-45.0 45.0)
  end
  begin
     id 29
     name rfingers
     direction -1 -4.48949e-011 -3.11466e-027   
     length 0.597378   
     axis 1.98742e-015 -90 -90   XYZ
    dof rx
    limits (0.0 90.0)
  end
  begin
     id 30
     name rthumb
     direction -0.707107 -6.34931e-011 0.707107   
     length 0.857719   
     axis -90 -45 -2.85299e-015   XYZ
    dof rx rz
    limits (-45.0 45.0)
           (-45.0 45.0)
  end
:hierarchy
  begin
    root lhipjoint rhipjoint lowerback
    lhipjoint lfemur
    lfemur ltibia
    ltibia lfoot
    lfoot ltoes
    rhipjoint rfemur
    rfemur rtibia
    rtibia rfoot
    rfoot rtoes
    lowerback upperback
    upperback thorax
    thorax lowerneck lclavicle rclavicle
    lowerneck upperneck
    upperneck head
    lclavicle lhumerus
    lhumerus lradius
    lradius lwrist
    lwrist lhand lthumb
    lhand lfingers
    rclavicle rhumerus
    rhumerus rradius
    rradius rwrist
    rwrist rhand rthumb
    rhand rfingers
  end

#!OML:ASF E:\I on waltz\AllaLogoMonkeySwing\Project 1\Capture day 1\Session 1\Subject1.ASF
:FULLY-SPECIFIED
:DEGREES
179
root 1.20049 6.74061 -1.90693 -29.0262 -1.49682 -1.17899
lowerback 38.7658 1.64182 -1.5428
upperback 10.5146 1.6456 1.94455
thorax -7.33893 0.714709 2.22976
lowerneck -15.5658 3.65202 1.57597
upperneck 4.56841 4.87497 -3.58572
head 3.99105 2.22843 -0.976058
rclavicle 5.36719e-015 -1.59028e-015
rhumerus 7.57406 15.1543 -78.878
rradius 79.4068
rwrist 13.3026
rhand 7.4855 -40.9711
rfingers 7.12502
rthumb 32.7377 -68.0263
lclavicle 5.36719e-015 -1.59028e-015
lhumerus -1.30409 -9.38432 89.7699
lradius 86.3516
lwrist -10.3367
lhand 7.52066 -8.73182
lfingers 7.12502
lthumb 32.7711 18.3164
rfemur -87.9418 -27.0301 25.568
rtibia 132.042
rfoot -17.1361 3.9258
rtoes 27.4341
lfemur -85.1866 37.7881 -15.0607
ltibia 133.389
lfoot -29.7585 -23.4983
ltoes -11.0252
180
root 1.20129 6.74057 -1.90682 -28.9997 -1.51514 -1.16391
lowerback 38.7346 1.64083 -1.53149
upperback 10.5637 1.65049 1.96588
thorax -7.27521 0.715728 2.24538
lowerneck -15.4992 3.68252 1.7055
upperneck 4.62377 4.91535 -3.83247
head 4.00901 2.2366 -1.06967
rclavicle 1.07344e-014 -9.14409e-015
rhumerus 7.64032 15.1296 -78.8749
rradius 79.4632
rwrist 13.2379
rhand 7.53824 -40.9678
rfingers 7.12502
rthumb 32.7879 -68.0126
lclavicle 1.07344e-014 -9.14409e-015
lhumerus -1.16734 -9.4255 89.6663
lradius 86.3781
lwrist -9.97715
lhand 7.83613 -8.64468
lfingers 7.12502
lthumb 33.0712 18.3405
rfemur -88.0144 -27.0007 25.568
rtibia 132.045
rfoot -17.3897 4.0102
rtoes 28.7799
lfemur -85.2345 37.7266 -15.0852
ltibia 133.414
lfoot -29.8181 -23.3904
ltoes -11.0945
181
root 1.20037 6.73915 -1.90742 -28.9771 -1.52378 -1.1881
lowerback 38.7307 1.63359 -1.48664
upperback 10.6056 1.66228 2.0063
thorax -7.22882 0.720015 2.26073
lowerneck -15.3766 3.6927 1.81682
upperneck 4.60154 4.93242 -4.10156
head 3.99398 2.23337 -1.17073
rclavicle -1.2921e-015 4.77083e-015
rhumerus 7.70524 15.0892 -78.832
rradius 79.5458
rwrist 13.1797
rhand 7.62156 -40.9289
rfingers 7.12502
rthumb 32.8671 -67.9571
lclavicle -1.2921e-015 4.77083e-015
lhumerus -1.14204 -9.4812 89.7024
lradius 86.4668
lwrist -10.0273
lhand 7.90356 -8.71797
lfingers 7.12502
lthumb 33.1353 18.2536
rfemur -88.0595 -26.9699 25.6045
rtibia 132.044
rfoot -17.3428 4.02971
rtoes 28.932
lfemur -85.2906 37.6335 -15.0514
ltibia 133.433
lfoot -29.8024 -23.3334
ltoes -10.997
182
root 1.20021 6.73744 -1.90687 -28.9694 -1.53757 -1.2104
lowerback 38.7243 1.61944 -1.44495
upperback 10.6448 1.66422 2.04784
thorax -7.18429 0.719548 2.28276
lowerneck -15.3144 3.70408 1.86398
upperneck 4.63697 4.95823 -4.29556
head 4.00283 2.23612 -1.23638
rclavicle -8.00108e-015 -1.13307e-014
rhumerus 7.73484 15.0908 -78.7764
rradius 79.6494
rwrist 13.1679
rhand 7.61327 -40.8956
rfingers 7.12502
rthumb 32.8592 -67.9254
lclavicle -8.00108e-015 -1.13307e-014
lhumerus -1.24521 -9.52292 89.8675
lradius 86.5499
lwrist -10.4468
lhand 7.69813 -8.90002
lfingers 7.12502
lthumb 32.94 18.1128
rfemur -88.0501 -26.9751 25.6585
rtibia 132.047
rfoot -17.4168 3.9409
rtoes 28.615
lfemur -85.3085 37.5503 -14.9992
ltibia 133.453
lfoot -29.775 -23.3063
ltoes -10.8639
183
root 1.19999 6.7381 -1.90786 -28.9707 -1.53594 -1.20298
lowerback 38.7126 1.62263 -1.41958
upperback 10.6579 1.68088 2.07488
thorax -7.16734 0.726989 2.29201
lowerneck -15.2242 3.69882 1.85672
upperneck 4.69819 4.96043 -4.34355
head 4.0089 2.2347 -1.25062
rclavicle 3.47873e-015 5.76476e-015
rhumerus 7.69138 15.0434 -78.7494
rradius 79.7369
rwrist 13.2186
rhand 7.59352 -40.9389
rfingers 7.12502
rthumb 32.8405 -67.9726
lclavicle 3.47873e-015 5.76476e-015
lhumerus -1.27138 -9.6369 89.9334
lradius 86.5555
lwrist -10.4777
lhand 7.71643 -8.8766
lfingers 7.12502
lthumb 32.9574 18.1326
rfemur -88.0464 -26.9814 25.6439
rtibia 132.036
rfoot -17.438 3.96672
rtoes 28.6105
lfemur -85.2615 37.4252 -14.9631
ltibia 133.443
lfoot -29.7439 -23.2918
ltoes -10.8131
184
root 1.19825 6.73976 -1.91081 -29.0002 -1.55099 -1.21575
lowerback 38.718 1.62874 -1.37248
upperback 10.6668 1.70784 2.08913
thorax -7.16016 0.739853 2.27213
lowerneck -15.0511 3.68652 1.89175
upperneck 4.68444 4.93994 -4.35592
head 3.97798 2.22716 -1.26434
rclavicle -1.2424e-015 9.93923e-015
rhumerus 7.65583 14.9702 -78.7709
rradius 79.7573
rwrist 13.254
rhand 7.59241 -40.9933
rfingers 7.12502
rthumb 32.8394 -68.0273
lclavicle -1.2424e-015 9.93923e-015
lhumerus -1.16391 -9.74576 89.8596
lradius 86.4908
lwrist -10.2943
lhand 7.97869 -8.84601
lfingers 7.12502
lthumb 33.2068 18.1103
rfemur -88.0111 -26.9336 25.6304
rtibia 132.01
rfoot -17.3751 4.01086
rtoes 28.9716
lfemur -85.1811 37.3588 -14.8799
ltibia 133.415
lfoot -29.6958 -23.3045
ltoes -10.7285
